<svg id="svg" xmlns="http://www.w3.org/2000/svg" xmlns:xlink="http://www.w3.org/1999/xlink" width="400" height="400" viewBox="0, 0, 400,400" version="1.1"><g id="svgg"><path id="path0" d="M179.000 28.000 C 176.800 28.945,172.075 29.782,168.500 29.859 C 164.821 29.939,160.264 31.736,158.000 34.000 C 155.800 36.200,152.660 38.000,151.023 38.000 C 149.385 38.000,146.460 39.286,144.523 40.858 C 132.882 50.301,106.205 70.642,101.801 73.433 C 98.942 75.245,95.583 79.039,94.337 81.864 C 93.092 84.689,90.286 89.700,88.102 93.000 C 85.919 96.300,81.337 104.400,77.921 111.000 C 70.071 126.168,60.149 136.000,52.693 136.000 C 50.771 136.000,52.342 130.195,54.500 129.325 C 56.259 128.615,56.301 128.269,54.643 128.158 C 53.346 128.071,51.096 129.125,49.643 130.500 C 48.189 131.875,43.273 135.529,38.719 138.620 C 32.758 142.666,30.709 145.280,31.407 147.949 C 32.039 150.366,30.853 152.473,27.999 154.000 C 23.987 156.148,23.719 155.953,24.793 151.672 C 25.437 149.102,23.201 152.608,19.823 159.463 C 11.154 177.052,9.841 221.399,17.245 246.522 C 17.816 248.459,21.091 251.496,24.522 253.270 C 30.830 256.532,38.377 264.274,36.798 265.863 C 36.326 266.338,32.748 263.638,28.847 259.863 C 24.946 256.088,22.338 254.528,23.051 256.395 C 25.293 262.267,56.000 282.480,56.000 278.084 C 56.000 276.938,57.690 276.000,59.755 276.000 C 66.485 276.000,69.151 270.396,62.779 269.645 C 57.259 268.994,53.386 264.038,58.333 263.956 C 59.800 263.931,63.063 262.324,65.583 260.384 C 70.114 256.897,70.031 256.858,58.298 256.928 C 41.039 257.033,37.214 252.800,27.840 223.222 C 21.302 202.593,24.487 176.260,33.570 175.842 C 35.656 175.746,36.020 175.289,34.500 174.675 C 30.953 173.244,31.404 169.138,35.500 165.576 C 40.254 161.441,55.995 159.063,56.013 162.476 C 56.020 163.864,57.595 162.640,59.513 159.756 C 62.277 155.600,63.893 154.846,67.305 156.120 C 70.053 157.145,72.915 156.772,75.221 155.086 C 77.207 153.633,80.041 152.909,81.518 153.475 C 83.528 154.247,83.872 153.186,82.885 149.253 C 81.871 145.213,82.309 144.000,84.783 144.000 C 86.552 144.000,88.000 144.975,88.000 146.167 C 88.000 151.078,92.666 146.332,93.181 140.896 C 95.447 117.009,107.310 88.852,116.073 86.560 C 118.047 86.044,120.190 83.517,120.835 80.944 C 121.481 78.371,124.718 74.337,128.028 71.980 C 131.339 69.623,133.635 67.028,133.132 66.214 C 132.629 65.400,134.869 63.168,138.109 61.254 C 143.240 58.223,147.103 59.846,142.106 62.934 C 137.707 65.654,127.947 82.169,132.032 79.983 C 134.214 78.815,136.000 76.927,136.000 75.788 C 136.000 74.648,142.075 67.845,149.500 60.669 L 163.000 47.622 176.000 48.726 C 184.346 49.435,187.568 49.195,185.000 48.056 C 181.749 46.613,182.404 46.255,188.500 46.141 C 195.796 46.004,198.542 43.359,193.500 41.325 C 192.125 40.770,194.772 40.245,199.382 40.158 C 203.992 40.071,208.320 40.900,209.000 42.000 C 210.178 43.906,207.299 44.910,203.000 44.094 C 201.667 43.841,201.667 44.328,203.000 45.556 C 205.822 48.156,221.404 54.000,225.512 54.000 C 232.993 54.000,249.566 64.229,248.526 68.205 C 247.760 71.135,248.603 72.000,252.223 72.000 C 255.385 72.000,260.671 76.012,268.456 84.321 C 274.805 91.098,280.000 95.729,280.000 94.613 C 280.000 93.497,277.750 90.156,275.000 87.189 C 272.250 84.222,270.029 81.165,270.064 80.397 C 270.099 79.629,271.323 80.575,272.784 82.500 C 274.245 84.425,276.406 86.000,277.586 86.000 C 280.306 86.000,282.442 92.520,280.975 96.344 C 280.361 97.944,281.691 100.910,283.929 102.936 C 286.168 104.962,288.000 108.730,288.000 111.310 C 288.000 114.430,289.171 116.011,291.500 116.034 C 295.295 116.071,304.034 133.682,304.012 141.250 C 303.988 149.609,306.545 158.000,309.115 158.000 C 310.554 158.000,312.257 159.658,312.900 161.684 C 315.371 169.471,323.496 174.872,328.980 172.373 C 333.935 170.116,335.885 166.000,332.000 166.000 C 330.900 166.000,330.000 165.100,330.000 164.000 C 330.000 155.795,349.542 172.829,355.166 185.935 C 362.397 202.787,358.573 238.821,349.798 236.527 C 347.133 235.830,345.497 237.062,344.056 240.853 C 342.948 243.768,339.796 248.233,337.053 250.776 C 334.310 253.318,332.598 255.931,333.249 256.582 C 334.700 258.034,320.848 264.000,316.026 264.000 C 312.961 264.000,312.408 261.042,311.443 239.500 C 309.542 197.043,291.265 164.020,261.142 148.612 C 249.466 142.640,241.761 143.069,225.291 150.610 C 211.631 156.863,191.777 152.498,198.274 144.670 C 201.322 140.997,198.656 138.935,187.000 135.950 C 182.600 134.823,174.482 132.554,168.959 130.909 C 154.579 126.624,140.002 130.053,131.185 139.795 C 129.092 142.108,126.395 144.030,125.190 144.067 C 119.742 144.232,114.000 151.803,114.000 158.821 C 114.000 167.997,116.450 168.020,132.866 159.000 C 139.872 155.150,148.268 152.000,151.523 152.000 C 163.741 152.000,176.000 154.567,176.000 157.126 C 176.000 164.061,193.595 173.642,208.000 174.551 C 210.750 174.724,213.692 175.796,214.538 176.933 C 215.518 178.250,217.151 177.591,219.038 175.118 C 220.667 172.982,222.000 172.030,222.000 173.000 C 222.000 173.970,223.199 173.125,224.664 171.121 C 229.691 164.246,262.000 164.403,262.000 171.303 C 262.000 173.020,264.297 176.231,267.105 178.440 C 269.913 180.649,271.738 182.928,271.161 183.506 C 270.584 184.083,272.302 187.158,274.979 190.340 C 279.674 195.919,283.966 207.372,283.989 214.382 C 283.995 216.242,284.900 218.320,286.000 219.000 C 287.100 219.680,288.000 223.095,288.000 226.588 L 288.000 232.941 283.811 224.970 C 277.294 212.571,273.784 207.549,272.519 208.814 C 271.880 209.453,272.783 211.556,274.524 213.488 C 279.014 218.469,283.937 233.647,283.971 242.618 C 283.988 247.181,284.802 249.740,286.000 249.000 C 288.701 247.331,288.552 256.971,285.740 265.858 C 281.087 280.565,280.252 280.945,281.042 268.000 L 281.836 255.000 280.112 265.705 C 277.115 284.307,272.577 293.420,263.874 298.311 C 255.474 303.032,254.661 306.463,263.000 302.000 C 274.539 295.825,267.112 313.992,254.652 322.423 C 245.919 328.331,236.706 331.712,238.868 328.214 C 240.972 324.810,236.830 325.590,233.871 329.156 C 228.213 335.972,210.000 343.574,210.000 339.119 C 210.000 336.613,209.283 336.611,204.500 339.106 C 201.475 340.684,197.200 341.995,195.000 342.018 C 191.684 342.054,191.513 342.393,194.000 344.000 C 196.426 345.568,196.139 345.945,192.500 345.969 C 190.025 345.986,188.000 345.198,188.000 344.217 C 188.000 341.821,173.144 336.000,167.027 336.000 C 161.423 336.000,148.000 330.078,148.000 327.606 C 148.000 325.441,163.334 327.662,171.000 330.937 C 186.526 337.569,192.643 336.859,178.500 330.066 C 151.523 317.108,141.377 310.507,142.788 306.832 C 143.280 305.548,142.180 304.610,140.342 304.749 C 138.504 304.887,136.914 303.650,136.809 302.000 C 136.704 300.350,134.699 294.950,132.353 290.000 C 130.007 285.050,128.068 277.275,128.044 272.722 C 127.994 263.314,122.910 261.476,118.713 269.348 C 116.085 274.277,115.775 301.625,118.329 303.204 C 119.248 303.771,120.000 306.883,120.000 310.118 C 120.000 314.499,120.940 316.000,123.685 316.000 C 125.833 316.000,128.915 318.869,131.074 322.878 C 133.111 326.660,135.383 329.382,136.122 328.925 C 136.861 328.468,139.075 329.873,141.043 332.047 C 143.010 334.221,143.634 336.000,142.428 336.000 C 141.222 336.000,139.620 335.004,138.868 333.786 C 137.889 332.202,137.077 332.258,136.011 333.983 C 134.948 335.703,133.266 335.048,130.137 331.696 C 127.141 328.487,126.168 328.087,127.065 330.434 C 131.018 340.779,165.361 354.661,193.000 357.086 C 201.800 357.858,210.475 359.258,212.278 360.196 C 224.222 366.416,242.475 363.663,251.398 354.297 C 262.025 343.144,268.027 336.000,266.771 336.000 C 266.077 336.000,266.622 334.660,267.982 333.022 C 269.341 331.384,271.390 330.623,272.536 331.331 C 273.790 332.106,274.014 331.641,273.099 330.161 C 272.220 328.738,273.257 325.873,275.565 323.352 C 277.756 320.958,282.436 313.825,285.965 307.500 C 289.494 301.175,293.133 296.000,294.052 296.000 C 294.970 296.000,296.009 293.975,296.361 291.500 C 296.803 288.389,298.141 287.195,300.696 287.633 C 302.729 287.981,306.006 286.804,307.979 285.019 C 310.451 282.782,314.589 281.920,321.284 282.249 C 343.201 283.325,357.380 276.778,372.900 258.414 C 376.114 254.611,376.210 254.045,373.464 255.099 C 371.643 255.798,369.607 258.086,368.941 260.185 C 368.275 262.283,366.891 264.000,365.865 264.000 C 363.291 264.000,363.498 262.772,367.312 255.401 C 372.248 245.860,375.949 230.285,375.976 218.945 C 375.990 213.236,377.310 207.020,379.030 204.564 C 383.079 198.784,369.388 162.397,363.604 163.566 C 361.455 164.001,357.963 161.153,354.090 155.807 C 346.096 144.772,348.424 142.724,357.317 152.969 C 361.121 157.351,363.587 159.151,362.797 156.969 C 359.645 148.265,348.235 141.873,330.945 139.126 C 321.085 137.559,320.670 137.196,319.094 128.800 C 318.242 124.259,316.392 121.205,314.133 120.614 C 310.869 119.761,307.206 113.155,299.655 94.500 C 298.208 90.925,296.330 88.000,295.482 88.000 C 293.657 88.000,286.014 75.886,286.018 73.000 C 286.019 71.900,288.238 74.600,290.948 79.000 C 294.821 85.289,295.889 86.095,295.938 82.770 C 296.009 77.948,288.506 67.451,286.066 68.959 C 283.852 70.328,279.674 64.992,281.517 63.149 C 282.333 62.334,282.100 61.951,281.000 62.298 C 279.900 62.645,277.200 61.390,275.000 59.509 C 240.129 29.703,203.225 17.590,179.000 28.000 M227.703 32.123 C 239.729 34.702,249.379 42.921,237.823 40.743 C 234.070 40.036,226.050 37.366,220.000 34.811 C 207.957 29.724,211.215 28.587,227.703 32.123 M176.000 32.930 C 176.000 33.441,174.200 34.823,172.000 36.000 C 168.807 37.709,168.000 37.521,168.000 35.070 C 168.000 33.333,169.737 32.000,172.000 32.000 C 174.200 32.000,176.000 32.418,176.000 32.930 M238.813 49.446 C 241.551 50.296,242.185 49.918,241.062 48.101 C 239.890 46.203,240.686 45.936,244.250 47.031 C 250.318 48.895,253.677 51.615,256.354 56.836 C 258.111 60.261,258.021 60.557,255.845 58.500 C 254.390 57.125,250.905 55.986,248.100 55.969 C 244.073 55.945,243.631 55.531,246.000 54.000 C 248.355 52.478,247.867 52.055,243.730 52.031 C 240.831 52.014,235.431 50.601,231.730 48.890 C 225.345 45.940,228.263 46.169,238.813 49.446 M95.507 96.944 C 88.570 109.022,84.927 110.214,90.993 98.421 C 95.815 89.046,98.058 86.000,100.142 86.000 C 101.050 86.000,98.965 90.925,95.507 96.944 M100.426 100.500 C 98.499 104.075,95.267 112.400,93.244 119.000 C 87.472 137.837,86.295 140.159,86.147 133.000 C 85.983 125.079,89.687 112.000,92.094 112.000 C 93.142 112.000,94.000 110.321,94.000 108.270 C 94.000 104.957,100.996 94.000,103.111 94.000 C 103.562 94.000,102.354 96.925,100.426 100.500 M162.000 133.000 C 163.369 134.650,166.980 136.000,170.023 136.000 C 176.212 136.000,187.634 143.815,181.618 143.933 C 179.758 143.970,177.680 143.100,177.000 142.000 C 176.320 140.900,173.620 140.000,171.000 140.000 C 168.380 140.000,165.632 139.023,164.895 137.830 C 164.035 136.439,159.140 136.071,151.277 136.804 L 139.000 137.949 147.000 134.027 C 156.703 129.270,158.786 129.127,162.000 133.000 M135.500 169.216 C 125.115 180.600,125.178 189.376,135.766 206.122 C 140.037 212.877,143.916 217.251,144.386 215.842 C 144.930 214.211,146.629 213.813,149.064 214.748 C 152.163 215.937,152.356 216.544,150.079 217.951 C 148.415 218.980,152.512 219.240,160.135 218.591 C 179.900 216.907,188.754 205.656,184.054 188.199 C 180.752 175.939,158.126 159.134,150.351 163.168 C 146.207 165.318,144.803 165.383,144.014 163.462 C 143.381 161.920,140.185 164.080,135.500 169.216 M225.939 181.681 C 218.285 189.295,216.460 192.327,217.391 195.885 C 218.046 198.390,217.549 201.043,216.277 201.829 C 206.030 208.162,222.404 232.000,237.000 232.000 C 265.313 232.000,275.561 184.057,249.370 174.133 C 239.733 170.482,235.982 171.690,225.939 181.681 M154.000 183.000 C 154.000 184.650,153.100 186.000,152.000 186.000 C 150.900 186.000,150.000 184.650,150.000 183.000 C 150.000 181.350,150.900 180.000,152.000 180.000 C 153.100 180.000,154.000 181.350,154.000 183.000 M369.604 194.235 C 370.753 198.764,371.165 203.850,370.518 205.536 C 369.549 208.059,364.458 193.776,364.088 187.500 C 363.789 182.407,367.865 187.385,369.604 194.235 M179.969 201.500 C 179.953 202.325,179.101 204.324,178.078 205.942 C 175.774 209.586,173.071 207.307,174.690 203.086 C 175.886 199.969,180.026 198.725,179.969 201.500 M175.512 212.500 C 174.568 215.376,164.000 217.181,164.000 214.466 C 164.000 211.448,166.431 210.000,171.500 210.000 C 174.471 210.000,176.017 210.963,175.512 212.500 M367.379 223.500 C 366.876 225.425,366.464 223.850,366.464 220.000 C 366.464 216.150,366.876 214.575,367.379 216.500 C 367.882 218.425,367.882 221.575,367.379 223.500 M228.557 223.697 C 226.864 224.080,224.710 223.180,223.770 221.697 C 220.639 216.755,221.946 215.773,226.817 219.407 C 230.553 222.194,230.944 223.156,228.557 223.697 M384.464 226.000 C 384.464 229.850,384.876 231.425,385.379 229.500 C 385.882 227.575,385.882 224.425,385.379 222.500 C 384.876 220.575,384.464 222.150,384.464 226.000 M23.856 234.694 C 27.515 244.482,28.175 248.000,26.352 248.000 C 24.472 248.000,18.000 233.930,18.000 229.841 C 18.000 226.562,22.080 229.943,23.856 234.694 M356.721 262.245 C 352.896 268.793,348.000 272.108,348.000 268.149 C 348.000 265.457,358.316 253.649,359.571 254.904 C 360.070 255.403,358.787 258.707,356.721 262.245 M345.000 272.000 C 344.320 273.100,341.792 273.937,339.382 273.859 C 335.157 273.724,335.144 273.657,339.000 272.000 C 344.505 269.634,346.462 269.634,345.000 272.000 M189.869 327.474 C 195.183 328.120,196.088 328.769,193.869 330.343 C 191.700 331.881,191.976 332.017,195.000 330.899 C 197.200 330.086,202.600 328.764,207.000 327.961 C 213.274 326.816,211.548 326.516,199.000 326.570 C 190.200 326.609,186.091 327.016,189.869 327.474 M175.143 341.920 C 181.258 344.971,182.023 345.858,178.594 345.920 C 173.312 346.016,164.000 342.033,164.000 339.679 C 164.000 337.119,166.547 337.632,175.143 341.920 M252.000 339.280 C 252.000 341.388,245.220 345.871,242.000 345.892 C 240.025 345.905,240.709 344.575,244.000 342.000 C 249.124 337.992,252.000 337.014,252.000 339.280 M236.612 351.287 C 235.299 351.821,234.686 353.459,235.249 354.927 C 236.719 358.759,233.355 360.171,226.173 358.735 C 216.364 356.773,223.296 350.915,236.000 350.430 C 237.774 350.363,238.025 350.713,236.612 351.287 " stroke="none" fill="#000000" fill-rule="evenodd"></path></g></svg>